<?xml version="1.0" encoding="UTF-8"?>
<svg id="Layer_2" data-name="Layer 2" xmlns="http://www.w3.org/2000/svg" viewBox="0 0 242.66 241.92">
  <defs>
    <style>
      .cls-1 {
        fill-rule: evenodd;
        clip-rule: evenodd;
        fill: rgb(56, 189, 248);
      }
    </style>
  </defs>
  <g id="Layer_1-2" data-name="Layer 1">
    <g id="g3541">
      <path id="path0" class="cls-1" d="m108.44.26c-4.59.93-6.29,1.21-9.4,1.58-4.05.48-11.32,2.45-17,4.62-1.54.59-3.55,1.25-4.47,1.47-.92.22-1.89.66-2.15.97-.26.32-.75.57-1.08.57-.54,0-7.43,3.12-8.9,4.03-.33.21-1.02.55-1.53.77-.51.22-1.2.67-1.53,1-.33.33-.9.6-1.27.61-.81,0-5.62,3.01-11.51,7.19-1.54,1.09-7.03,5.73-11.76,9.93-1.65,1.47-4.26,4.09-5.8,5.82-1.54,1.74-3.07,3.45-3.41,3.8-2.04,2.13-6.11,7.74-8.58,11.81-.44.73-1.29,1.96-1.89,2.74s-1.31,1.94-1.58,2.56c-.27.63-.72,1.42-1,1.76-.8.96-5.33,10.23-5.33,10.89,0,.32-.25.8-.56,1.05-.31.26-.68.95-.83,1.54-.15.59-.61,1.83-1.04,2.76-.42.93-.77,1.98-.77,2.34s-.35,1.31-.77,2.12c-.93,1.8-2.45,6.75-2.44,7.96,0,.49-.35,1.8-.79,2.91s-.8,2.84-.8,3.83-.28,2.47-.62,3.29c-2.1,5-2.18,34.1-.12,40.64.41,1.29.74,3.28.74,4.41s.24,2.41.53,2.85.76,2.03,1.06,3.55c.29,1.52.77,3.23,1.07,3.8.3.57.54,1.44.54,1.94,0,.5.36,1.57.8,2.39.44.82.8,1.8.8,2.17s.72,2.21,1.6,4.08,1.6,3.55,1.6,3.73.54,1.32,1.19,2.52,1.39,2.64,1.64,3.19c.73,1.65.75,1.68,6.57,11.52,4.12,6.96,20.05,24.51,24.54,27.05.36.2.84.58,1.06.84.22.26,1.66,1.45,3.2,2.64,6.81,5.29,14.17,9.56,23.4,13.58,2.53,1.1,5.19,2.26,5.91,2.58.72.32,1.52.58,1.77.58s1.19.34,2.09.76c.89.42,3.07,1.15,4.83,1.64,1.76.48,4.37,1.21,5.8,1.61,1.43.41,3.56.85,4.74.98,1.18.13,2.8.49,3.6.79.8.3,2.98.66,4.84.8,1.86.14,4.2.45,5.2.68,2.67.64,18.64.44,22.77-.28,1.84-.32,4.13-.58,5.09-.58s2.51-.26,3.45-.58,2.7-.75,3.91-.96c2.76-.47,7.42-1.57,9-2.12.66-.23,2.12-.67,3.26-.98,1.13-.31,2.57-.83,3.2-1.16s1.47-.6,1.87-.6c.4,0,1.39-.35,2.2-.77,2.48-1.28,5.14-2.44,5.6-2.44s3.85-1.72,4.63-2.35c.24-.19.84-.47,1.33-.62,3.37-1.03,20.51-12.23,20.51-13.4,0-.17.34-.47.76-.67,1.63-.77,6.12-5.07,15.22-14.54,1.54-1.6,8.37-10.68,8.88-11.81.25-.56.61-1.02.79-1.02s.6-.58.93-1.3c.33-.71.77-1.57.99-1.9,1.08-1.64,5.22-9.31,5.22-9.68,0-.23.33-1.07.73-1.87,2.3-4.56,3.88-8.27,4.27-10.11.16-.74.54-1.7.84-2.13.3-.43.55-1.21.55-1.72s.33-1.6.74-2.41c.41-.82.97-2.65,1.26-4.08.29-1.43.65-2.78.81-3,.16-.22.38-1.51.5-2.88.12-1.36.5-2.89.85-3.39.42-.59.64-1.76.64-3.33,0-1.33.27-3.94.6-5.81.7-3.97.86-21.97.2-23.19-.22-.4-.56-2.87-.76-5.47-.23-2.93-.61-5.19-1-5.94-.35-.66-.64-1.87-.64-2.69,0-.82-.26-2.26-.57-3.2-.31-.94-.68-2.34-.82-3.11-.34-1.82-1.74-6.27-2.46-7.8-.31-.66-.73-1.74-.94-2.4-.88-2.78-1.9-5.38-2.29-5.88-.23-.29-.55-.98-.7-1.52-.63-2.24-4.37-9.59-5.88-11.55-.4-.52-.74-1.11-.74-1.3,0-.84-7.06-11.01-9.86-14.2-1.13-1.29-2.73-3.15-3.55-4.14-1.5-1.82-9.21-9.42-11.28-11.12-2.08-1.71-8.89-7.07-10.81-8.51-1.62-1.21-6.95-4.4-8.91-5.33-.33-.16-1.32-.71-2.2-1.23-1.76-1.04-4.57-2.45-7.5-3.76-1.04-.47-2.66-1.2-3.6-1.63-1.6-.73-3.15-1.32-6.9-2.61-.88-.3-2.32-.83-3.2-1.16-.88-.34-2.15-.62-2.82-.63-.67,0-1.92-.38-2.79-.82-.86-.44-1.96-.8-2.43-.8s-1.63-.27-2.55-.6c-.93-.33-3.61-.78-5.95-1s-4.89-.61-5.66-.87c-1.66-.55-24.53-.85-27-.35m27.35,5.46c.62.43,2.04.71,4.19.81,1.79.09,3.95.43,4.79.76.84.33,2.64.71,4,.85,1.36.13,2.74.48,3.07.76.33.28,1.5.7,2.6.92,2.47.5,5.48,1.48,7.64,2.49.9.42,1.95.77,2.33.77s1.71.6,2.96,1.33c1.25.73,2.76,1.46,3.35,1.6.59.15,2.12.88,3.39,1.62s2.76,1.48,3.32,1.64c.87.25,12.66,7.91,13.2,8.57.11.13,1.19.99,2.4,1.9s2.56,1.99,3,2.4c.44.41,1.52,1.27,2.4,1.92,2.47,1.82,8.58,7.85,9.67,9.55.54.84,1.94,2.57,3.12,3.85,1.18,1.28,2.35,2.72,2.6,3.2.26.48,1.53,2.29,2.84,4.02,1.3,1.74,2.37,3.32,2.37,3.53s.28.6.62.89c.34.29.88,1.07,1.19,1.75.31.68.74,1.5.96,1.83.21.33.62,1.07.91,1.65.29.58,1.63,3.28,2.98,6,3.86,7.77,7.19,16.5,7.75,20.3.18,1.23.61,2.91.96,3.73.35.82.63,1.99.63,2.61s.25,1.48.56,1.92c1.63,2.32,1.68,38.99.06,43.38-.28.77-.64,2.3-.8,3.4-.16,1.1-.52,2.27-.8,2.6-.28.33-.63,1.68-.77,3-.24,2.18-1.04,4.78-2.46,8-.29.66-.65,1.65-.81,2.2-.15.55-.9,2.35-1.66,4-1.63,3.53-2.67,5.82-3.28,7.2-.24.55-1.17,2.26-2.05,3.8-.89,1.54-1.87,3.35-2.17,4.03-.31.68-.84,1.46-1.18,1.75-.34.28-.62.74-.62,1.01s-.36.82-.8,1.21-.8.89-.8,1.1-.58,1.11-1.28,1.99c-.7.89-1.75,2.31-2.32,3.16-3.95,5.89-15.96,17.86-22.01,21.94-.49.33-1.54,1.12-2.34,1.75-2.42,1.9-6.58,4.61-8.34,5.41-.48.22-1.65.9-2.6,1.5-.95.6-2.53,1.5-3.52,1.98-3.53,1.74-8.79,4.16-10.29,4.72-6.83,2.58-8.64,3.21-10.91,3.87-1.43.41-2.96.75-3.4.76-.44,0-1.29.27-1.9.59-.6.32-1.95.7-3,.85-1.05.15-2.62.57-3.5.92-2.5,1.01-40.2.98-42.06-.04-.69-.38-2.04-.81-3-.96-.96-.15-2.1-.51-2.53-.81-.43-.3-1.33-.54-2-.54-2.56.01-14.53-4.25-19.81-7.06-.55-.29-2.98-1.54-5.4-2.76-6.29-3.19-8.5-4.45-11.08-6.33-1.25-.91-3.21-2.29-4.35-3.06-1.14-.77-3.17-2.4-4.52-3.61-1.35-1.22-3.53-3.1-4.85-4.19-3.39-2.79-8.37-8.31-13.18-14.6-1.09-1.43-2.14-2.78-2.32-3-1.37-1.66-4.01-5.54-4.86-7.16-.57-1.08-1.2-2.16-1.4-2.4-.2-.24-.93-1.52-1.61-2.84-.69-1.32-1.41-2.67-1.59-3-.19-.33-.73-1.5-1.2-2.6-.47-1.1-1.22-2.67-1.65-3.48-.43-.81-.79-1.78-.79-2.15s-.35-1.32-.78-2.12c-.86-1.59-2.82-7.33-2.82-8.25,0-.32-.25-1.17-.56-1.89-1.05-2.45-2.65-10.48-2.64-13.28,0-2.08-.17-2.96-.69-3.54-1.07-1.18-1.31-25.97-.29-28.69.37-.99.82-3.33.99-5.2s.52-4.21.78-5.2c.26-.99.69-2.79.97-4s.69-2.56.92-3,.55-1.7.71-2.8c.16-1.1.43-2.18.6-2.4.17-.22.54-1.12.82-2s.84-2.23,1.25-2.99c.41-.77.74-1.71.74-2.09,0-.63,1.12-3.24,2.03-4.72.2-.33.55-1.05.77-1.6.22-.55.56-1.27.77-1.6.2-.33,1.39-2.58,2.63-5,1.24-2.42,3.23-5.75,4.43-7.4s2.39-3.33,2.67-3.74c1.69-2.47,3.91-5.2,6.59-8.1.49-.52,1.42-1.72,2.07-2.66,1.43-2.04,4-4.5,8.05-7.68,1.65-1.3,3.84-3.09,4.87-3.99,3.06-2.67,15.15-11.03,15.95-11.03.2,0,1.76-.71,3.47-1.58s3.74-1.85,4.51-2.18,2.03-.95,2.8-1.37c.77-.43,2.75-1.28,4.4-1.89,1.65-.61,3.79-1.44,4.75-1.85.96-.4,2.32-.74,3.01-.74s1.88-.33,2.65-.74c.77-.41,2.55-.87,3.97-1.03,1.42-.16,3.31-.54,4.2-.85.89-.31,2.8-.57,4.23-.57,1.83,0,3.02-.24,4-.78,1.97-1.1,27.61-1.25,29.15-.17m-22.15,8.84c-.44.11-1.15.45-1.59.75-.43.3-1.24.55-1.8.55s-2.27.45-3.81.99c-1.54.54-3.27.99-3.85,1-.58,0-1.27.28-1.55.61s-1.04.6-1.7.6-1.76.34-2.45.75c-.69.41-1.91.87-2.73,1.01s-1.99.53-2.6.85c-.61.32-1.57.59-2.12.59-.55,0-1.54.36-2.2.8s-1.52.8-1.9.8c-.39,0-1.37.36-2.2.8-.82.44-1.88.8-2.34.8s-1.31.36-1.87.8c-.56.44-1.45.8-1.97.8s-1.16.2-1.41.45-1.32.76-2.38,1.15c-1.06.38-2.83,1.02-3.92,1.42-2.71.98-7.13,3.89-7.66,5.04-2.37,5.13-2.22,6.37,1.22,10.13,2.06,2.25,2.48,1.86-6.97,6.41-2.97,1.43-5.94,2.96-6.6,3.4-.66.44-1.47.8-1.8.8-.64,0-3.3,2.12-5.43,4.34-.96,1-1.46,2.06-1.95,4.2-1.24,5.32.17,8.13,6.79,13.5,1.32,1.07,2.67,2.18,3.01,2.46.85.71,6.1,4.19,6.6,4.36.23.08,1.26.78,2.3,1.55,1.04.77,2.86,2.12,4.05,3s3.89,2.86,6,4.39c3.93,2.86,4.88,4.38,3.28,5.29-.31.18-2.71,2.39-5.33,4.92-2.62,2.53-5.83,5.5-7.12,6.6-1.29,1.1-3.17,2.74-4.17,3.64-1,.9-2.63,2.36-3.62,3.25-1.56,1.39-4.51,3.8-10.94,8.89-.85.67-1.86,1.22-2.24,1.22s-1,.34-1.39.76c-.88.97-5.57,1.52-7.51.88-2.93-.97-4.94-9.54-2.84-12.1.24-.3.65-1.35.9-2.34.58-2.29,2.75-7.65,4.21-10.4.29-.55.97-1.83,1.51-2.85.54-1.01,1.1-2.18,1.25-2.6.15-.41.71-1.48,1.25-2.35.54-.88,1.17-2.05,1.39-2.6.22-.55.58-1.3.79-1.66.46-.81.17-1.14-1-1.14-1.44,0-3.18,2.58-7.81,11.6-.85,1.65-1.72,3.45-1.95,4-.23.55-.57,1.27-.77,1.6-.77,1.3-2.45,6.07-2.45,6.96,0,.52-.27,1.59-.6,2.38-.79,1.89-.82,7.95-.04,9.18.31.49.68,1.48.84,2.22.29,1.41,1.18,2.98,3.3,5.89,1.52,2.08,1.61,3.24.46,5.75-3.16,6.88-4.32,11.92-4.35,18.83-.03,9.53,2.77,14.78,8.85,16.58,2.32.69,6.05.03,7.73-1.37.44-.36,1.25-.85,1.8-1.09s2.29-1.62,3.86-3.08c3.72-3.45,4.32-3.48,3.93-.19-.16,1.35-.58,3.11-.93,3.9-1,2.21-.96,17.4.04,18.83.39.54.7,1.27.7,1.6,0,4.22,9.01,11.91,16,13.66,5.51,1.38,21.91.21,25.6-1.83.55-.3,1.72-.69,2.6-.85.88-.16,2.32-.63,3.2-1.03s1.99-.73,2.46-.74,1.05-.25,1.29-.54c.24-.3,1.13-.74,1.97-.99s2.36-1.01,3.39-1.69c4.02-2.67,5.38-.89,3.66,4.79-.63,2.07-.75,5.87-.2,6.21.2.12.48,1.1.63,2.17.71,5.15,6.85,10.91,11.55,10.83,3.77-.07,9.38-4.41,15.62-12.1,4.94-6.08,8.37-9.42,14.44-14.05,3.66-2.79,14.59-8.55,19.8-10.43.99-.36,2.43-.9,3.2-1.2,3.33-1.3,4.14-.87,6.54,3.48.97,1.77,2.17,3.23,3.56,4.34l2.1,1.67,3.6-.18c7.11-.36,12.55-5.41,16.27-15.1,1.39-3.61,1.79-18,1.17-41.88-.24-9.34-.56-15.59-.82-16.08-.39-.74-.67-3.35-1.64-15.44-.19-2.42-.55-8.54-.78-13.6-.24-5.06-.61-10.28-.83-11.6s-.59-5.6-.82-9.52c-.51-8.6-.33-9.15,2.14-6.67,2.62,2.62,3.65.62,1.75-3.4-2.24-4.74-2.65-5.73-2.65-6.3,0-.33-.26-.82-.57-1.08s-.69-1.05-.84-1.75c-.14-.7-.49-1.63-.76-2.07s-.62-1.3-.77-1.91c-.38-1.53-2.03-2.28-2.97-1.34-.88.88-.82,18.82.1,29.06.33,3.63.78,10.11,1.01,14.4.23,4.29.6,9.51.82,11.6.22,2.09.57,8.07.78,13.3.2,5.23.48,9.67.61,9.88.29.47.54,4.48.98,15.62.19,4.73.51,9.05.73,9.6.21.55.52,6.97.68,14.26l.29,13.26-.93,1.65c-.83,1.46-6.09,5.18-7.41,5.24-.18,0-1.04.36-1.92.79-2.55,1.23-4.19,1.04-6.66-.76-4.04-2.95-4.34-3.56-2.35-4.77.65-.4,1.73-1.43,2.39-2.29.66-.86,1.48-1.93,1.83-2.37,1.27-1.6,4.19-7.51,4.2-8.48,0-.4.28-1.62.62-2.73,1.61-5.24-3.14-15.4-7.19-15.4-2.05,0-7.83,5.09-7.83,6.89,0,.3-.37,1.26-.82,2.13-1.01,1.95-1.93,7.28-2.31,13.39-.16,2.53-.43,4.83-.61,5.11-.36.58-5.63,3.3-8.77,4.53-13.07,5.12-19.67,10.11-31.82,24.1-8.87,10.21-15.14,13.73-19.31,10.84-2.66-1.85-3.83-7.27-2.59-12.05.35-1.34.63-2.95.64-3.58,0-.63.23-1.52.5-1.99s.9-1.58,1.39-2.47c.49-.89,2.35-3.17,4.14-5.05,9.41-9.92,10.89-16.89,6.14-29.03-.3-.77-.74-2.12-.97-3-.23-.88-.69-1.95-1.01-2.38-1.32-1.73-.61-3.15,1.59-3.2,1.6-.03,1.99-2.22.65-3.58-.46-.46-2.38-2.69-4.28-4.94-4.04-4.8-5.35-5.17-5.35-1.51,0,.57-.28,1.47-.63,2-.58.89-.57,1.1.2,2.84.46,1.03.83,2.53.83,3.33,0,.8.36,1.99.8,2.65.44.66.8,1.65.8,2.21,0,.55.36,1.68.8,2.5.44.82.8,1.81.8,2.2,0,.39.36,1.24.8,1.9s.8,1.52.8,1.91c0,.39.36,1.73.8,2.99.44,1.25.8,2.74.8,3.3s.36,1.33.8,1.71c2.51,2.15.1,7.27-5.25,11.19-4.43,3.24-18.42,10.71-20.06,10.71-.37,0-1.43.34-2.38.76-12.63,5.58-29.95,4.5-37.99-2.38-5.07-4.33-7.49-13.75-5.75-22.36.35-1.7.64-3.62.65-4.26.01-.64.55-2.06,1.19-3.16.64-1.1,1.53-2.67,1.98-3.5.45-.83,1-1.5,1.22-1.5s1.11-.72,1.98-1.6c.86-.88,1.84-1.6,2.17-1.6s.79-.36,1.03-.8.69-.8,1-.8,1.79-.61,3.29-1.36c4.04-2.03,7.2-3.44,7.71-3.44.24,0,1.11-.34,1.93-.76.81-.42,2.29-.97,3.28-1.22s2.74-.69,3.89-.98c1.15-.29,2.34-.73,2.64-.98.3-.25,1.38-.57,2.41-.71,1.8-.25,2.48-.65,7.75-4.57,5.92-4.4,7.16-15.95,2.62-24.31-3.69-6.79-3.91-7.3-3.28-7.7.97-.62,1.48-.43,3.54,1.33,1.1.93,3.36,2.78,5.03,4.1,1.67,1.32,3.7,2.96,4.52,3.64.82.68,1.96,1.49,2.54,1.8,1.07.56,3.76,2.68,5.3,4.17.46.45,1.38,1.15,2.04,1.57.66.41,2.1,1.51,3.2,2.44,1.1.93,2.74,2.2,3.65,2.83.91.63,2.73,1.98,4.05,3.01s2.76,1.97,3.19,2.11c.89.28,1.71,4.67,1.72,9.24,0,1.32.21,3.12.46,4,.3,1.06.54,9.05.69,23.6.21,19.23.31,22.01.84,22.11,1.28.25,2.1-.92,2.45-3.51.19-1.39.52-2.74.74-3,.44-.53.53-1.19,1.41-10.21.94-9.62-.13-32.4-1.64-34.84-.58-.94,1.84-1.1,4.11-.28,7.5,2.72,19.16-.52,20.73-5.76.15-.5.5-1.27.77-1.71.71-1.14,1.33-4.3,1.57-8,.12-1.76.42-3.8.68-4.54.48-1.36.28-5.3-.42-8.06-.19-.77-.46-5.26-.6-9.97-.14-4.71-.35-8.72-.47-8.91-.22-.36-.72-6.94-1.31-17.35-.2-3.57-.55-6.43-.86-7-.33-.62-.63-3.45-.81-7.77-.16-3.74-.48-8.24-.71-10-1.4-10.51-1.53-15-.45-15,.44,0,.81.13.82.3,0,.16.62,1.01,1.37,1.88,2.34,2.73,3.67.14,1.63-3.18-.54-.88-.99-2.02-1-2.54,0-.51-.37-1.39-.81-1.95-.44-.56-.8-1.31-.8-1.67s-.25-1.01-.55-1.45c-.3-.43-1.13-2.13-1.85-3.78-1.34-3.06-2.69-5.21-3.28-5.21-2.04,0-2.98,11.58-1.35,16.6.33,1,.54,3.94.57,7.86.03,3.71.24,6.73.51,7.4.26.62.62,4.02.8,7.54.55,10.43,1.07,17.79,1.5,21.2.22,1.76.41,4.55.42,6.2.01,1.65.29,4.41.62,6.13.33,1.73.6,4.41.6,5.97s.26,4.83.58,7.26c.72,5.52,1.36,17.58,1.12,21-.21,3.06-1.17,4.6-3.27,5.27-.79.25-1.88.74-2.43,1.09-1.24.79-8.35.94-9.24.2-.31-.26-1.59-.85-2.83-1.32-4.49-1.68-5.92-4.36-5.92-11.09,0-2.24-.26-5.21-.57-6.6-.39-1.75-.65-6.81-.85-16.52-.22-11.15-.4-14.24-.87-15.15-1.52-2.97.95-3.95,3.09-1.23.77.98,1.58,1.72,1.8,1.65,1.14-.39-.04-6.46-1.96-10.07-.35-.66-.64-1.55-.64-1.97,0-.42-.26-1.05-.57-1.4-.61-.68-1.58-3.13-2.38-6-.71-2.54-2.62-3.32-3.32-1.34-.14.39-.57,1.44-.97,2.34-.81,1.85-.82,13.33-.01,22.77.23,2.64.51,8.49.63,13s.3,11.05.41,14.54c.26,8.35-.23,9.19-3.87,6.66-5.99-4.17-9.98-7.07-11.99-8.7-.88-.71-1.77-1.3-1.98-1.3s-1.26-.67-2.34-1.5c-1.08-.82-2.62-1.95-3.42-2.5-.8-.55-2.21-1.55-3.13-2.21-.92-.67-3.1-2.2-4.85-3.4-1.75-1.2-3.64-2.57-4.2-3.05-.56-.48-1.46-1.22-2-1.65-1.83-1.46-.65-2.86,2.48-2.95,6.57-.18,12.52.18,14.1.85,4.16,1.77,6.17.57,6.21-3.7.02-2.01-4.41-7.08-6.18-7.08-.28,0-.74-.27-1.01-.6s-.84-.6-1.25-.6c-2.01,0-6.27-6.02-6.94-9.8-.16-.88-.47-1.83-.7-2.11-.23-.28-.58-1.9-.78-3.6-.2-1.7-.46-3.91-.59-4.91-.28-2.18.45-3.13,1.82-2.4.68.37,2.83.22,2.83-.19,0-.29-1.7-3.7-2.52-5.05-.49-.8-1.58-2.69-2.44-4.2-.85-1.51-1.91-3.34-2.35-4.07l-.8-1.33-1.15,1.1c-1.37,1.31-1.77,9.5-.54,11.13.38.51.59,1.72.59,3.49,0,1.49.26,3.48.58,4.42s.77,3.64,1.01,5.99c.24,2.35.68,4.87.98,5.6,1.91,4.59.62,8.33-3.02,8.85-.96.13-2.46.61-3.33,1.06-.87.45-1.94.82-2.37.82s-1.07.26-1.42.57c-1.42,1.28-4.76.95-6.76-.67-1.61-1.31-7.41-5.1-7.8-5.1-.12,0-1.38-.76-2.81-1.7-1.43-.93-3.73-2.33-5.1-3.1s-2.69-1.59-2.93-1.82c-.44-.42-4-2.51-8.4-4.91-1.34-.73-2.7-1.57-3.03-1.85s-1.04-.65-1.58-.82c-3.06-.93-5.47-3.18-5.01-4.64.21-.67,3.44-3.15,4.11-3.16.67,0,4.95-1.94,5.61-2.54.4-.36,1.13-.66,1.62-.66s1.55-.35,2.37-.78c2.85-1.5,4.91-2.42,5.39-2.42.27,0,1.21-.34,2.09-.76.88-.42,2.59-1.16,3.8-1.64,1.21-.48,2.74-1.12,3.4-1.42.66-.3,1.74-.67,2.4-.82.66-.15,1.83-.61,2.59-1.01.77-.41,1.67-.74,2.01-.74s.99-.26,1.46-.59,1.63-.71,2.59-.85,2.31-.6,3-1.01,1.59-.75,2.01-.75,1.14-.26,1.6-.59,1.63-.71,2.59-.86c.96-.15,2.38-.61,3.15-1.01.77-.41,1.86-.74,2.42-.74s1.38-.26,1.81-.59c.43-.32,1.29-.59,1.91-.6s2.42-.45,4-.99,3.72-1.1,4.77-1.25c1.05-.15,2-.43,2.12-.62.12-.2,1.03-.35,2.02-.35s2.65-.35,3.68-.78c1.77-.73,5.04-1.25,11.47-1.82,3.44-.31,6.95.45,9.2,1.97,4.4,2.98,3.29,5.16-6.73,13.18-5.82,4.65-15.07,14.59-15.07,16.17,0,.15-.73,1.33-1.62,2.62-1.57,2.26-1.86,3.44-.93,3.74.24.08,1.68-1.16,3.2-2.76,2.85-3.01,11.59-11.66,19.51-19.32,11.3-10.92,12.12-19.62,2.23-23.64-2.71-1.1-4.78-1.21-7.11-.39-.89.32-2.94.7-4.55.85-1.61.15-3.91.61-5.11,1.03-1.2.41-2.88.75-3.72.75s-2.29.34-3.21.76c-.92.41-2.49.89-3.48,1.05-.99.16-2.12.46-2.52.67-.4.21-1.77.55-3.06.76s-2.85.64-3.48.97c-.63.33-1.43.6-1.77.6-.82,0-6.88,1.82-7.92,2.37-.44.24-1.94.68-3.33.99-2.71.6-4.62,1.21-6.52,2.09-.66.3-1.83.65-2.6.78-.77.13-2.21.55-3.2.95-2.68,1.07-4.42,1.67-6.2,2.13-.88.23-2.28.73-3.12,1.11-.83.38-1.86.61-2.29.49-.84-.22-3.2-3.61-3.2-4.6,0-.34-.27-.84-.6-1.11-1.77-1.47,1.17-5.2,4.09-5.2.23,0,.63-.26.9-.59.27-.32,1.14-.71,1.94-.86.8-.15,1.99-.6,2.66-1.01.66-.4,1.59-.74,2.06-.74.47,0,1.06-.26,1.32-.57s1.18-.69,2.05-.84c.87-.15,1.67-.42,1.78-.6.12-.19,1.19-.62,2.38-.97s2.28-.81,2.42-1.03.64-.4,1.13-.4,1.27-.27,1.74-.6c.47-.33,1.97-.86,3.35-1.18,1.37-.32,2.69-.77,2.92-1,.23-.23.7-.42,1.05-.42s1.27-.35,2.07-.77c.79-.42,2.14-.89,2.99-1.04.85-.15,1.95-.52,2.44-.83.49-.3,1.12-.55,1.41-.55s1.19-.36,2.01-.8c.82-.44,1.82-.8,2.21-.8s1.38-.34,2.2-.76,1.93-.87,2.48-1.01c1.83-.46,2.85-3.72,1.06-3.39-.14.03-.61.14-1.05.25m23.08.53c-.82.37-2.15.96-2.96,1.31-.81.35-1.67.99-1.91,1.43-.91,1.7,2.42,2.06,5.3.57,1.43-.74,2.28-.45,2.28.78,0,.69-.39,1.13-1.46,1.63l-1.46.7.88.62c1.91,1.34,7.7-1.93,7.95-4.49.25-2.54-5.17-4.13-8.64-2.55m41.22,16.88c-.47.6-1.06,5.04-.99,7.49.48,16.52.95,25.23,1.45,26.8.41,1.27.65,4.86.82,12.2.13,5.72.52,12.65.85,15.4.71,5.9.68,5.56.62,6.71-.05.89-3.4,4.49-4.18,4.49-.51,0-4.4,2.59-5.04,3.36-1.45,1.75,1.24,1.9,3.74.21,5.11-3.45,5.82-2.9,5.83,4.55,0,4.08.2,6.79.6,8.27.37,1.36.5,2.92.35,4.09-.55,4.21,1.82,4.98,2.45.79.15-1.04.48-2.24.73-2.68.25-.45.64-5.08.89-10.6q.45-9.79,1.65-11.9c1.45-2.53,3.94-5.3,4.77-5.3,1.58,0,2.56-9.4,1.25-12-.71-1.41-2.17-1.51-3.36-.24-.53.57-1.09,1.04-1.25,1.04-1.69,0-2.11,4.5-.58,6.13,2.2,2.35,1.98,3.75-.85,5.24-1.78.94-1.84.88-2.11-2.02-.12-1.29-.45-3.06-.75-3.94-.35-1.05-.61-4.72-.76-10.6-.13-5.29-.46-10.15-.79-11.8-.78-3.83-1.28-18.81-.64-19.2.27-.17,1.08.31,1.95,1.16,2.34,2.28,4.04.85,2.1-1.77-.47-.63-.85-1.44-.85-1.79,0-.56-1.39-3.95-2.38-5.82-.18-.35-.83-1.88-1.44-3.4-1.71-4.3-3.16-6.03-4.08-4.86m-134.63,9.39c-.58.84-1.17,2.1-1.31,2.8-.14.71-.5,1.49-.81,1.74-1.65,1.37-.39,9.96,1.46,9.96,2.46,0,3.66-3.7,1.58-4.88-.66-.38-1.19-1.01-1.18-1.4.03-1.42,1.14-5.38,1.78-6.37,1.57-2.4.1-4.2-1.52-1.85m74.96,2.51c-.67,1.33-1.23,2.67-1.23,2.99s-.36.77-.8,1-.8.79-.8,1.24-.38,1.64-.84,2.66c-1.53,3.35-.09,7.31,2.64,7.31,2.56,0,4.45-4.46,2-4.74-3.03-.34-2.78-2,1.45-9.62,1.32-2.38,1.27-3.25-.21-3.25-.8,0-1.21.45-2.21,2.41m30.46,13.3c-.5.23-1,.88-1.12,1.45s-.59,2.51-1.04,4.31c-.46,1.8-.74,3.69-.62,4.2,1.21,5.22,3.18,6.56,5.25,3.57,1.44-2.07,1.27-3.24-.56-3.85l-1.4-.47-.12-3.32c-.09-2.67.01-3.46.56-4.07,1-1.1.32-2.42-.95-1.84m20.84.21c-.9.13-1.73,1.8-1.73,3.48,0,.48-.29,1.46-.65,2.17-1.7,3.4.96,8.12,4.11,7.27,2.12-.57,2.21-3.65.1-3.65-1.56,0-2.12-3.93-1-7.09.64-1.81.42-2.38-.83-2.19m-86.52,2.96c-.44.73-.92,1.95-1.05,2.72-.13.77-.48,1.77-.76,2.23-.28.45-.64,2.03-.8,3.51-.39,3.65-.52,3.64-4.71-.51-3.83-3.79-4.85-4.39-6.24-3.64-2.48,1.33-.6,5.78,2.96,6.98,1.77.59,4.68,4.15,5.23,6.38.38,1.55,1.91,2.23,2.94,1.3.86-.78,1.64-4.49,1.64-7.79,0-1.15.2-2.47.45-2.93.24-.46.66-1.66.92-2.67.33-1.3.64-1.79,1.05-1.67,3.21.96,4.49-.43,3-3.23-1.28-2.4-3.36-2.71-4.6-.66m131.59,8.52c-.64.77-.33,22.49.35,24.6.47,1.47.54,2.57,1.26,22.6.25,6.82.62,12.92.82,13.56.21.65.37,10.42.37,22.07s.11,21.19.24,21.54c.61,1.58,2.25.14,2.93-2.57.25-.99.7-2.43,1.01-3.2,1.58-3.97,1.59-41.85,0-49.2-.31-1.46-.67-6.37-.81-11.2-.14-4.73-.43-9.31-.65-10.18s-.39-2.76-.38-4.2c.01-1.44-.13-3.71-.32-5.02-.19-1.32-.19-2.56-.01-2.75.46-.49,2.39.05,2.39.67,0,1.17,1.22,2.3,2.02,1.87,1.03-.55.98-1.82-.17-4.21-.52-1.09-1.09-2.6-1.25-3.37-.17-.77-.54-1.76-.83-2.2s-1.09-2.24-1.79-3.98c-2-5-3.71-6.6-5.18-4.83m-179.46,5.71c-4.06,3.63-4.67,5.64-2.58,8.44.88,1.17,1.5,2.37,1.39,2.65-.46,1.2-12.79,11.15-16.13,13.01-3.36,1.88-4.02,2.48-4.02,3.64,0,1.55,1.67,1.3,5.04-.77,2.29-1.41,7.07-4.73,8.31-5.77.85-.71,1.84-1.46,2.2-1.66.36-.2,2.1-1.66,3.86-3.24,2.31-2.08,3.62-2.96,4.7-3.16,2.88-.53,3.88-2.74,2.2-4.88-.73-.93-.93-1.76-1.04-4.46-.13-3.1-.21-3.36-1.26-4.11-1.39-.99-1.19-1.01-2.66.3m-13.32,4.87c-1.22,2.28-.1,6.83,1.69,6.83,2.81,0,4.8-3.26,2.63-4.3-.65-.31-1.25-1.06-1.53-1.9-.53-1.61-2.07-1.95-2.78-.62m27.82,13.02c-.6.78-1.19,2.09-1.31,2.91s-.39,1.69-.58,1.94c-.33.42-1.73,5.14-2.2,7.41-.15.73.13,1.67.9,3,2.45,4.24,3.83,4.74,5.76,2.08,1.85-2.55,1.53-5.07-.49-3.79-2.64,1.67-4.54-4.38-2.13-6.79.34-.34.62-.98.62-1.41s.38-1.67.83-2.73c1.45-3.38.51-5.13-1.4-2.62m75.55,3.51c-.15.49-.51,1.17-.79,1.5-2.39,2.76-3.71,12.03-2.06,14.54.89,1.37,3.31,1.4,4.02.06.23-.44.74-1.29,1.14-1.88.94-1.42.55-2.47-.79-2.13-2.16.54-3.7-2.55-2.33-4.71.31-.49.68-1.65.84-2.59.15-.93.42-1.7.61-1.7.67,0,1.31-2.78.78-3.41-.68-.82-1.09-.73-1.41.32m26.22,8.84c-.66,1.4-1.2,2.85-1.2,3.24s-.36,1.15-.8,1.71c-.44.56-.81,1.4-.81,1.86s-.28,1.2-.6,1.62c-.8,1.06-.74,2.32.22,4.55,2.32,5.41,3.31,5.98,5.73,3.3,2.01-2.23,1.8-3.62-.54-3.62s-3.44-3.63-1.83-6.74c.35-.67.63-1.46.63-1.75s.36-1.2.8-2.02c.81-1.51,1-2.91.56-4.06-.43-1.13-.93-.68-2.16,1.91m-67.2,1.59c3.48,3.22,5.64,5.73,9.01,10.45.88,1.23,1.83,2.5,2.12,2.82.28.31.78,1.16,1.11,1.89.33.72,1.12,2.21,1.76,3.31,1.28,2.19,1.63,5.52.72,6.67-.65.82-4.68,3.34-5.93,3.72-.53.16-1.36.54-1.84.84s-1.56.72-2.4.93c-.84.21-2.34.65-3.33.98-.99.33-2.61.8-3.6,1.05-4.74,1.19-5.52,1.43-6.04,1.87-.31.26-1.1.6-1.76.76-2.48.6-9.69,4.13-11.53,5.64-.62.51-1.3.93-1.51.93-.5,0-3.58,2.47-6.49,5.2-1.29,1.21-2.73,2.41-3.21,2.66-.48.26-1.13.93-1.43,1.5-.3.57-.69,1.03-.87,1.03s-.82.45-1.43,1c-1.48,1.32-5.96,4.94-7.72,6.23-3.33,2.45-8.11,3.35-10.2,1.91-2.58-1.77-3.85-7.64-2.58-11.95.23-.77.58-2.71.79-4.32.21-1.61.65-3.31.99-3.79.33-.48.61-1.15.61-1.49s.35-1.31.78-2.15c.43-.84.88-2.01,1.01-2.61.3-1.38,3.5-3.81,5.49-4.19,3.37-.63,9.63-5.23,18.64-13.7,2.13-2.01,4.87-4.48,6.08-5.51,1.21-1.02,3.01-2.62,4-3.56.99-.93,3.05-2.77,4.57-4.09,1.52-1.32,3.26-2.86,3.86-3.42,5-4.73,5.89-4.79,10.37-.64m145.54.53c-1.38.38-3.58,8.65-2.77,10.43.63,1.38,1.39.6,1.78-1.83.13-.84.89-2.75,1.67-4.26,1.87-3.59,1.66-4.97-.67-4.34m-3.31,13.16c-.77.77-.78,1.25-.04,4.77.81,3.87,2.01,4.71,3.9,2.71,2.18-2.31,2.12-4.9-.11-4.9-.86,0-1.17-.29-1.69-1.6-.68-1.74-1.1-1.94-2.06-.97m-148.27,1.87c-3.63,4-3.14,3.95-7.3.84-3-2.24-3.56-2.21-5.91.35-3.04,3.3-3.01,4.82.13,6.92.95.64,2.08,1.55,2.52,2.04,1.61,1.77,2.25,1.59,5.14-1.45,3.22-3.39,2.92-3.38,6.82-.23,3.71,2.99,4.11,2.97,6.14-.37,1.93-3.17,1.8-4.66-.59-6.92-3.1-2.93-5.07-3.27-6.95-1.2m33.53,4c-1.94,1.46-2.31,4.79-.88,7.86,1.4,3,.7,4.32-4.83,9.2-3.29,2.91-7.26,6.45-8.52,7.61-.58.53-1.78,1.43-2.68,2-5.18,3.29-8.57,7.73-5.43,7.1,1.2-.24,9.45-6.23,10.37-7.53.29-.41.75-.74,1.04-.74s1.18-.72,1.99-1.6c.81-.88,1.65-1.6,1.86-1.6.5,0,7.59-6.95,7.59-7.43,0-.82,2.64-3.37,3.47-3.37,2.97,0,3.46-1.08,1.74-3.87-.73-1.18-1.34-2.91-1.58-4.47-.56-3.54-2.09-4.71-4.14-3.16m-94.37,6c-1.72,1.43-1.86,2.9-.35,3.68,1.49.77,1.67,2.36.44,3.93-.44.56-.8,1.19-.8,1.4s-.26.61-.58.87c-.72.6-2.22,3.65-2.22,4.52,0,2.28,3.25-.32,4.85-3.88.21-.45.81-1.55,1.34-2.43,1.57-2.59,1.89-3.49,1.93-5.48.07-3.26-2.24-4.57-4.6-2.61m161.54,1.8c-.53.83-1.43,1.94-2.01,2.47-1.68,1.55-1.41,2.88,1.11,5.44,2.55,2.59,2.65,2.58,5.86-.64,2.63-2.63,3.36-2.71,5.62-.64,3.35,3.06,4.43,3.09,6.74.19,2.3-2.89,2.04-4.9-.94-7.22-2.16-1.69-3.36-1.48-6.32,1.1-3.08,2.69-4.26,2.52-6.39-.9-1.14-1.82-2.45-1.75-3.69.2m-132.39,2.45c-.54,1.07-1.11,2.55-1.27,3.29-.16.74-.56,1.76-.89,2.26-.79,1.2-.34,8.16.64,9.82,1.31,2.24,4.23,1.36,5.26-1.58.24-.7.7-1.48,1.02-1.75.65-.54.74-1.51.21-2.35-.29-.46-.59-.37-1.62.5-2.93,2.46-4.22-2.15-2.01-7.19,1.99-4.54.8-7.23-1.32-3m119.18,8.84c-4.32.47-4.46,3.2-.16,3.21,2.54,0,3.35.63,1.99,1.53-2.48,1.65,1.19,2.42,3.88.82,6.5-3.88,3.71-6.58-5.71-5.55m-6.2,11.25c-4.84,1.93-8.88,8.97-6.45,11.23,1.08,1.01,1.03,2.17-.12,2.92-4.21,2.76-1.25,4.41,3.61,2.01,1.56-.77,3.8-1.6,4.98-1.85s2.63-.7,3.23-1.01c.59-.3,1.63-.55,2.3-.55,2.27,0,3.94-2.94,1.92-3.38-.49-.11-3.3-.25-6.24-.31-8.43-.18-9.22-4-1.16-5.68.6-.13,1.55-.32,2.1-.44,1.46-.3,1.44-2.45-.03-3-1.26-.48-2.86-.46-4.14.05m-78.29,1.34c-.69.3-1.37.74-1.52.98-.15.24-.6.44-1,.44s-.96.28-1.24.62c-.29.34-1.16.89-1.95,1.22-.79.33-2.06,1.1-2.84,1.72-.77.62-3.11,2.08-5.2,3.25-5.15,2.89-7.67,5.02-7.51,6.36.16,1.38,1.35,1.22,4.27-.58,4.05-2.5,5.34-1.63,3.85,2.6-.67,1.91-.84,10.11-.24,11.68,1.5,3.94,6.44,4.31,6.44.49,0-.55.26-1.09.57-1.21.82-.32,1.09-1.29.61-2.19-.4-.74-.48-.72-1.97.47-1.68,1.35-2.41,1.27-2.41-.25,0-.53-.38-1.69-.84-2.58-.91-1.75-.84-3.4.26-5.49.32-.61.58-1.71.59-2.43,0-2.53,4.05-8.49,5.76-8.49.53,0,4.08-2.68,5.46-4.11,2.19-2.28,1.6-3.67-1.07-2.51m26.03,3.92c-1.86,3.83-2.63,10.13-1.59,13.08,1.83,5.19,4.77,5.47,7.2.68,1.32-2.62.6-4.37-1.01-2.43-1.17,1.41-2.94.58-3.29-1.55-.29-1.77.54-7.81,1.52-10.98.65-2.11-1.71-1.1-2.83,1.2m80.3-1c.57.61,1.16,1.54,1.33,2.08.16.54.54,1.23.85,1.53,1.32,1.32.7,5.23-1.14,7.24-4.83,5.27-6.85,5.42-7.77.58-.29-1.5-.73-3.64-.99-4.76-1.23-5.27,4.45-10.18,7.73-6.68m-99.57,8.6c-2.75,4.24-2.4,5.4,2.65,9.04,2.71,1.95,4.97,1.09,5.97-2.26.96-3.21.62-3.95-3.17-6.8-2.95-2.21-4.01-2.21-5.46.02m-48.2,10.72c-2.47,1.3-2.92,3.24-.87,3.75,1.75.44,1.99,2.35.59,4.62-1.43,2.33-2.22,5.2-1.42,5.2.44,0,2.19-.97,2.19-1.21,0-.15.43-.92.96-1.69.53-.78,1.08-1.96,1.22-2.63.15-.67.51-1.42.82-1.67.64-.53,1.2-4.33.82-5.52-.19-.59-2.32-1.86-2.78-1.66-.02,0-.71.37-1.53.8m135.81,19.9c-.65.41-2.9,3.77-2.91,4.33,0,.25-.27.67-.59.94-.32.27-.99,1.81-1.47,3.43-.88,2.94-1.75,3.98-2.22,2.67-.53-1.49-5.74-7.2-7.92-8.69-2.14-1.46-4.6.92-3.07,2.98.42.57.88,1.41,1.03,1.88.26.83,2.91,2.94,3.69,2.94.53,0,2.96,2.52,2.96,3.07,0,.24.26.65.57.91.32.26.7,1.05.85,1.75.3,1.4,2.41,4.07,2.76,3.5.46-.74,2.21-6.26,2.22-6.97,0-.4.36-1.19.8-1.75.44-.56.8-1.48.8-2.04,0-2.43,2.5-3.8,4.27-2.33,2.94,2.43,4.85.48,2.67-2.73-.3-.43-.54-1.05-.54-1.38,0-1.53-2.69-3.27-3.88-2.52m-28.62,10.91c-.56.33-2.3,3.25-2.3,3.86,0,.08.63.41,1.4.73,2.05.86,1.76,2.17-1.38,6.24-.97,1.26-1.06,2.27-.21,2.6.97.37,4.08-3.21,4.81-5.52.16-.52.54-1.3.84-1.73,1.89-2.73-.62-7.65-3.15-6.18"/>
    </g>
  </g>
</svg>